<svg width="64" height="64" viewBox="0 0 64 64" fill="none" xmlns="http://www.w3.org/2000/svg">
<path fill-rule="evenodd" clip-rule="evenodd" d="M50.6667 29.3333C52.0122 29.3329 53.3082 29.8411 54.2948 30.756C55.2814 31.6709 55.8858 32.9249 55.9867 34.2667L56 34.6667V50.6667C56.0004 52.0122 55.4923 53.3082 54.5773 54.2948C53.6624 55.2814 52.4084 55.8858 51.0667 55.9867L50.6667 56H40C38.6545 56.0004 37.3585 55.4923 36.3719 54.5773C35.3853 53.6624 34.7809 52.4084 34.68 51.0667L34.6667 50.6667V34.6667C34.6662 33.3211 35.1744 32.0252 36.0893 31.0385C37.0042 30.0519 38.2583 29.4476 39.6 29.3467L40 29.3333H50.6667ZM24 40C25.4145 40 26.771 40.5619 27.7712 41.5621C28.7714 42.5623 29.3333 43.9188 29.3333 45.3333V50.6667C29.3333 52.0812 28.7714 53.4377 27.7712 54.4379C26.771 55.4381 25.4145 56 24 56H13.3333C11.9188 56 10.5623 55.4381 9.5621 54.4379C8.5619 53.4377 8 52.0812 8 50.6667V45.3333C8 43.9188 8.5619 42.5623 9.5621 41.5621C10.5623 40.5619 11.9188 40 13.3333 40H24ZM50.6667 34.6667H40V50.6667H50.6667V34.6667ZM24 45.3333H13.3333V50.6667H24V45.3333ZM24 8C25.4145 8 26.771 8.5619 27.7712 9.5621C28.7714 10.5623 29.3333 11.9188 29.3333 13.3333V29.3333C29.3333 30.7478 28.7714 32.1044 27.7712 33.1046C26.771 34.1048 25.4145 34.6667 24 34.6667H13.3333C11.9188 34.6667 10.5623 34.1048 9.5621 33.1046C8.5619 32.1044 8 30.7478 8 29.3333V13.3333C8 11.9188 8.5619 10.5623 9.5621 9.5621C10.5623 8.5619 11.9188 8 13.3333 8H24ZM24 13.3333H13.3333V29.3333H24V13.3333ZM50.6667 8C52.0812 8 53.4377 8.5619 54.4379 9.5621C55.4381 10.5623 56 11.9188 56 13.3333V18.6667C56 20.0812 55.4381 21.4377 54.4379 22.4379C53.4377 23.4381 52.0812 24 50.6667 24H40C38.5855 24 37.229 23.4381 36.2288 22.4379C35.2286 21.4377 34.6667 20.0812 34.6667 18.6667V13.3333C34.6667 11.9188 35.2286 10.5623 36.2288 9.5621C37.229 8.5619 38.5855 8 40 8H50.6667ZM50.6667 13.3333H40V18.6667H50.6667V13.3333Z" fill="#35B4B1"/>
</svg>
